<svg xmlns="http://www.w3.org/2000/svg" width="999" height="569.485"><defs><linearGradient x2="1" gradientUnits="userSpaceOnUse" gradientTransform="matrix(0 -53.0063 -53.0063 0 109.158 67.179)" id="a"><stop offset="0" stop-color="#faa21b"/><stop offset="1" stop-color="#f15623"/></linearGradient></defs><path d="M45.694 46.916c-.547-.211-.693-.429-.698-.852V23.046a.878.878 0 0 1 .783-.857l20.103-.011a7.252 7.252 0 0 1 7.252 7.253 7.25 7.25 0 0 1-7.252 7.252 7.258 7.258 0 0 1-2.805-.562c-.577 6.535-6.057 11.663-12.744 11.663a12.94 12.94 0 0 1-4.639-.868m-2.979-1.629l-.328-16.337.328-5.929a.804.804 0 0 1 .799-.79c.434 0 .792.357.798.796v-.006l.356 5.929-.356 16.339a.807.807 0 0 1-.798.796.807.807 0 0 1-.799-.798m-2.426-1.356l-.281-14.974.281-6.021a.756.756 0 0 1 .748-.742c.406 0 .741.335.749.745v-.004.004l.315 6.012-.315 14.981a.757.757 0 0 1-.749.744.756.756 0 0 1-.748-.745m-7.254-1.57l-.371-13.405.372-6.155a.599.599 0 0 1 .597-.59c.324 0 .586.261.597.592v-.002.003l.418 6.151-.418 13.406a.602.602 0 0 1-.597.594.6.6 0 0 1-.598-.594m2.399-.343l-.341-13.064.342-6.095a.649.649 0 0 1 .648-.642c.353 0 .637.284.647.645v-.004l.384 6.096-.384 13.064a.651.651 0 0 1-.647.645.65.65 0 0 1-.649-.645m-4.778-.093l-.402-12.969.402-6.192a.55.55 0 0 1 .547-.54c.295 0 .535.237.547.542l.453 6.19-.453 12.97a.554.554 0 0 1-.547.542.551.551 0 0 1-.547-.543m7.196-.385l-.312-12.586.312-6.057a.698.698 0 0 1 1.396.004v-.005l.35 6.057-.35 12.588a.7.7 0 0 1-.697.695.7.7 0 0 1-.699-.696m-9.557-.612l-.431-11.97.431-6.257a.504.504 0 0 1 .497-.49c.265 0 .483.216.497.492l.487 6.255-.487 11.97a.507.507 0 0 1-.497.492.504.504 0 0 1-.497-.492m-2.342-2.227l-.461-9.743.461-6.295a.454.454 0 0 1 .446-.44c.236 0 .433.194.447.441v-.002l.522 6.296-.522 9.743a.46.46 0 0 1-.447.442.456.456 0 0 1-.446-.442m-4.627-3.285l-.52-6.455.52-6.244a.353.353 0 0 1 .346-.339c.181 0 .329.145.346.339l.59 6.244-.59 6.457c-.017.192-.165.339-.346.339a.354.354 0 0 1-.346-.341m-2.285-.17l-.551-6.283.551-6.053c.016-.169.14-.29.296-.29.153 0 .277.121.295.289l.625 6.054-.624 6.283c-.019.167-.143.289-.296.289-.156 0-.28-.123-.296-.289m4.589-.297l-.49-5.988.49-6.296a.402.402 0 0 1 .396-.391c.21 0 .38.168.396.39l.557 6.297-.557 5.991a.403.403 0 0 1-.396.387.4.4 0 0 1-.396-.39m-6.855-.691l-.58-5.294.58-5.179c.017-.138.121-.238.246-.238.123 0 .224.097.244.237l.659 5.18-.658 5.294c-.021.141-.122.238-.245.238-.125 0-.229-.1-.246-.238m-2.171-2.02l-.431-3.274.431-3.219c.016-.136.114-.231.237-.231.119 0 .216.095.235.23l.511 3.22-.511 3.275c-.018.135-.116.229-.235.229-.123 0-.221-.095-.237-.23m39.751-15.275c0-1.647.873-2.79 2.35-2.79 1.476 0 2.35 1.143 2.35 2.79s-.874 2.791-2.35 2.791c-1.477 0-2.35-1.144-2.35-2.791m1.113 0c0 .967.363 1.717 1.237 1.717.872 0 1.236-.75 1.236-1.717 0-.966-.364-1.715-1.236-1.715-.874 0-1.237.749-1.237 1.715m-10.188 0c0-1.708.95-2.79 2.365-2.79.983 0 1.632.456 2.003 1.222l-.912.541c-.286-.479-.573-.688-1.059-.688-.812 0-1.285.742-1.285 1.715 0 1.006.466 1.717 1.277 1.717.486 0 .796-.216.99-.587l1.005.463c-.341.704-.96 1.198-1.98 1.198-1.414 0-2.404-1.144-2.404-2.791m-22.62 0c0-1.647.873-2.79 2.35-2.79 1.476 0 2.35 1.143 2.35 2.79s-.874 2.791-2.35 2.791c-1.477 0-2.35-1.144-2.35-2.791m1.113 0c0 .967.363 1.717 1.237 1.717.874 0 1.237-.75 1.237-1.717 0-.966-.363-1.715-1.237-1.715-.874 0-1.237.749-1.237 1.715m-5.954 1.206c0-1.066.697-1.383 1.693-1.615 1.021-.232 1.207-.387 1.207-.735 0-.41-.302-.587-.943-.587-.519 0-1.006.177-1.385.619l-.781-.696c.41-.604 1.199-.982 2.103-.982 1.478 0 2.126.696 2.126 1.724 0 1.175-.951 1.468-1.81 1.669-.857.203-1.089.31-1.089.65 0 .239.193.488.773.488.496 0 .882-.202 1.23-.557l.78.757c-.51.533-1.128.85-1.971.85-1.067 0-1.933-.603-1.933-1.585m48.039 1.501v-5.412h1.616c1.392 0 2.767.803 2.767 2.705 0 1.98-1.143 2.707-2.69 2.707h-1.693zm1.082-1.052h.574c1.142 0 1.614-.549 1.614-1.655 0-.989-.518-1.654-1.654-1.654h-.534v3.309zm-3.517 1.052v-3.039c0-.866-.425-1.399-1.112-1.399-.69 0-1.107.549-1.107 1.414v3.024h-1.082v-3.039c0-1.577.881-2.458 2.189-2.458 1.376 0 2.195.905 2.195 2.473v3.024h-1.083zm-12.822 0v-5.412h3.252v1.067h-2.17v4.345h-1.082zm-10.663 0v-5.412h1.615c1.392 0 2.768.803 2.768 2.705 0 1.98-1.143 2.707-2.69 2.707h-1.693zm1.082-1.052h.573c1.143 0 1.616-.549 1.616-1.655 0-.989-.519-1.654-1.656-1.654h-.533v3.309zm-3.54 1.052v-2.289c0-.302.015-.982.015-1.183-.07.14-.247.41-.378.611l-1.919 2.861h-1.035v-5.412h1.067v2.381c0 .302-.016.981-.016 1.183.07-.139.248-.41.379-.611l1.986-2.953h.967v5.412H37.48zm-5.751 0v-3.039c0-.866-.427-1.399-1.114-1.399-.688 0-1.106.549-1.106 1.414v3.024h-1.083v-3.039c0-1.577.883-2.458 2.189-2.458 1.375 0 2.195.905 2.195 2.473v3.024h-1.081z" fill="url(#a)" transform="matrix(16.9434 0 0 -16.9434 -240.139 809.624)"/></svg>